<?xml version="1.0" encoding="utf-8"?>
<!-- Generator: Adobe Illustrator 21.0.0, SVG Export Plug-In . SVG Version: 6.00 Build 0)  -->
<svg version="1.1" id="Capa_1" xmlns="http://www.w3.org/2000/svg" xmlns:xlink="http://www.w3.org/1999/xlink" x="0px" y="0px"
	 width="58px" height="58px" viewBox="0 0 58 58" style="enable-background:new 0 0 58 58;" xml:space="preserve">
<style type="text/css">
	.st0{stroke:#000000;stroke-width:2;stroke-miterlimit:10;}
</style>
<g>
	<path class="st0" d="M53.8,6H4.2C1.9,6,0,7.9,0,10.2v37.6C0,50.1,1.9,52,4.2,52h49.6c2.3,0,4.2-1.9,4.2-4.2V10.2
		C58,7.9,56.1,6,53.8,6z M52.8,50H5.2C3.4,50,2,48.6,2,46.8V11.2C2,9.4,3.4,8,5.2,8h47.6c1.8,0,3.2,1.4,3.2,3.2v35.6
		C56,48.6,54.6,50,52.8,50z"/>
	<path class="st0" d="M16,28.1c3.1,0,5.6-2.5,5.6-5.6c0-3.1-2.5-5.6-5.6-5.6s-5.6,2.5-5.6,5.6S12.9,28.1,16,28.1z M16,19
		c2,0,3.6,1.6,3.6,3.6S18,26.1,16,26.1s-3.6-1.6-3.6-3.6S14,19,16,19z"/>
	<path class="st0" d="M7,46c0.2,0,0.5-0.1,0.7-0.2l15.1-13.3c0.7-0.6,1.7-0.6,2.4,0.1l9.2,9.2c0.4,0.4,1,0.4,1.4,0s0.4-1,0-1.4
		l-4.8-4.8l8-8.8c0.6-0.7,1.7-0.8,2.4-0.1l10,9.2c0.4,0.4,1,0.3,1.4-0.1c0.4-0.4,0.3-1-0.1-1.4l-12-11C40.5,23.1,40.2,23,40,23
		c-0.3,0-0.5,0.1-0.7,0.3l-9.8,10.7l-4.7-4.7c-0.4-0.4-1-0.4-1.4,0l-17,15c-0.4,0.4-0.5,1-0.1,1.4C6.4,45.9,6.7,46,7,46z"/>
</g>
</svg>
